<?xml version="1.0" encoding="utf-8"?>
<svg viewBox="0 0 1 1" width="250" height="250" xmlns="http://www.w3.org/2000/svg">
  <path style="stroke: rgb(0, 0, 0); fill: rgb(49, 254, 1); fill-opacity: 0.6; stroke-width: 0.1px; transform-origin: 0.5px 0.5px; transform: scale(0.7);"  d="m0 0c0 0 .373-.061.397-.067.025-.006.043.014.017.04-.028.024-.046.06-.046.1 0 .072.059.131.132.131.073 0 .132-.059.132-.131 0-.04-.018-.075-.046-.1-.026-.026-.008-.046.017-.04.025.006.397.067.397.067 0 0-.061.373-.067.397-.006.025.014.043.04.017.024-.028.06-.046.099-.046.072 0 .131.059.131.132 0 .073-.058.132-.131.132-.04 0-.075-.018-.1-.046-.026-.026-.046-.008-.04.017.006.025.067.397.067.397 0 0-.373.061-.397.067-.025.006-.043-.014-.017-.04.028-.024.046-.06.046-.099 0-.072-.059-.131-.132-.131-.073 0-.132.059-.132.131 0 .04.018.075.046.099.026.026.008.046-.017.041-.025-.006-.397-.067-.397-.067 0 0 .061-.373.067-.397.006-.025-.014-.043-.04-.017-.024.028-.06.046-.099.046-.072 0-.131-.059-.131-.132 0-.073.059-.132.131-.132.04 0 .075.018.099.046.026.026.046.008.04-.017-.006-.025-.067-.397-.067-.397z"/>
</svg>