<?xml version="1.0" encoding="utf-8"?>
<svg viewBox="0 0 1 1" width="250" height="250" xmlns="http://www.w3.org/2000/svg">
  <path style="stroke: rgb(0, 0, 0); fill: rgb(49, 254, 1); fill-opacity: 0.6; stroke-width: 0.1px; transform-origin: 0.5px 0.5px; transform: scale(0.7);" 
  d="m0 0 .363.003 0 .063c-.021.013-.035.036-.035.062 0 .04.033.073.074.073.04 0 .073-.033.073-.073 0-.026-.013-.049-.034-.062l0-.063.164 0 0 .16c-.021.017-.035.044-.035.073 0 .053.042.095.095.095.052 0 .094-.042.094-.095 0-.029-.013-.056-.035-.073l0-.16.276-.001-.002.276.16 0c.017-.021.044-.035.073-.035.053 0 .095.043.095.095 0 .052-.042.094-.095.094-.029 0-.056-.013-.073-.035l-.16 0 0 .165.063 0c.013-.021.036-.035.062-.035.04 0 .073.033.073.074 0 .04-.033.073-.073.073-.026 0-.049-.014-.062-.034l-.063 0 0 .361-.36-.003 0-.063c.02-.013.034-.036.034-.062 0-.04-.033-.073-.073-.073-.041 0-.074.033-.074.073 0 .027.014.049.035.062l0 .063-.164 0 0-.16c.021-.017.034-.044.034-.073 0-.052-.042-.095-.094-.095-.052 0-.095.043-.095.095 0 .029.014.056.035.074l0 .159-.277 0-.001-.276-.16 0c-.017.021-.044.035-.073.035-.053 0-.095-.043-.095-.095 0-.052.042-.094.095-.094.029 0 .056.013.073.034l.16 0 0-.164-.063 0c-.013.021-.036.035-.062.035-.04 0-.073-.033-.073-.074 0-.04.033-.073.073-.073.026 0 .049.014.062.034l.063 0 .002-.36z"
  />
</svg>