<?xml version="1.0" encoding="utf-8"?>
<svg viewBox="0 0 1 1" width="250" height="250" xmlns="http://www.w3.org/2000/svg">
  <path style="stroke: rgb(0, 0, 0); fill-opacity: 0.6; fill: rgb(49, 254, 1); stroke-width: 0.1px; transform-origin: 0.5px 0.5px; transform: scale(0.7);" d="m0 0 .221 0c.013 0 .023.004.029.011 0 0 .077.084.109.12.007.007.016.011.029.011l.221 0c.013 0 .023-.003.029-.011 0 0 .03-.032.111-.121.007-.007.016-.011.029-.011l.221 0 0 .221c0 .013.003.023.011.029.089.081.121.111.121.111.007.006.011.016.011.029l0 .221c0 .013-.003.023-.011.029-.036.032-.12.109-.12.109-.007.006-.011.016-.011.029l0 .22-.22 0c-.013 0-.023-.003-.029-.011 0 0-.077-.084-.109-.12-.007-.007-.016-.011-.029-.011l-.221 0c-.013 0-.023.003-.029.011 0 0-.03.032-.111.121-.006.007-.016.011-.029.011l-.221 0 0-.221c0-.013-.004-.023-.011-.029-.089-.081-.121-.111-.121-.111-.007-.006-.011-.016-.011-.029l0-.221c0-.013.004-.023.011-.029.036-.032.12-.109.12-.109.007-.006.011-.016.011-.029l0 0z" />
</svg>