<?xml version="1.0" encoding="utf-8"?>
<svg viewBox="0 0 1 1" width="250" height="250" xmlns="http://www.w3.org/2000/svg">
  <path style="stroke: rgb(0, 0, 0); fill: rgb(49, 254, 1); fill-opacity: 0.6; stroke-width: 0.1px; transform-origin: 0.5px 0.5px; transform: scale(0.7);"  d="m0 0c.155-.015.425-.038.353.101-.071.14.01.148.144.145.135.003.215-.005.144-.145-.071-.14.201-.117.357-.103-.014.154-.037.427.103.356.14-.071.148.01.145.144.002.134-.005.215-.145.144-.14-.071-.117.201-.101.355-.153.014-.425.037-.354-.103.071-.14-.01-.148-.144-.145-.134-.003-.215.005-.144.145.071.14-.201.117-.356.104.015-.153.038-.426-.102-.355-.14.071-.148-.01-.145-.144-.002-.134.005-.215.145-.144.14.071.115-.202.1-.356z"/>
</svg>