<?xml version="1.0" encoding="utf-8"?>
<svg viewBox="0 0 1 1" width="250" height="250" xmlns="http://www.w3.org/2000/svg">
  <path style="stroke: rgb(0, 0, 0); fill: rgb(49, 254, 1); fill-opacity: 0.6; stroke-width: 0.1px; transform-origin: 0.5px 0.5px; transform: scale(0.7);" d="m0 0c0 0 .097.477-.039.397-.088-.052-.156-.056-.213-.011-.063.049-.086.147-.008.217.056.05.133.055.21.002.165-.113.053.39.053.39 0 0 .498.1.392-.055-.053-.077-.048-.154.002-.21.07-.078.168-.054.217.008.045.058.041.126-.011.214-.074.126.394.04.394.04 0 0-.083-.467.042-.394.088.052.156.056.213.011.063-.049.086-.147.008-.217-.056-.05-.133-.055-.21-.002-.153.105-.049-.388-.049-.388 0 0-.499-.107-.393.049.053.077.048.154-.002.21-.07.078-.168.054-.217-.008-.045-.058-.041-.126.011-.214.079-.134-.399-.039-.399-.039z"/>
</svg>