<?xml version="1.0" encoding="utf-8"?>
<svg viewBox="0 0 1 1" width="250" height="250" xmlns="http://www.w3.org/2000/svg">
  <path style="stroke: rgb(0, 0, 0); fill: rgb(49, 254, 1); fill-opacity: 0.6; stroke-width: 0.1px; transform-origin: 0.5px 0.5px; transform: scale(0.7);" d="m0 0 .259 0 0 .084c-.027.018-.046.048-.046.083 0 .054.044.098.098.098.054 0 .098-.044.098-.098 0-.035-.018-.066-.046-.083l0-.084.219 0 0 .213c-.028.023-.047.059-.047.098 0 .07.057.126.126.126.07 0 .126-.057.126-.126 0-.04-.018-.075-.047-.098l0-.213.259 0 0 .263.213 0c.023-.029.059-.047.098-.047.07 0 .126.057.126.126 0 .07-.057.126-.126.126-.039 0-.075-.018-.098-.047l-.213 0 0 .219.084 0c.017-.028.048-.046.083-.046.054 0 .098.044.098.098 0 .054-.044.098-.098.098-.035 0-.065-.018-.083-.046l-.084 0v.256h-.258l0-.078c.027-.018.046-.048.046-.083 0-.054-.044-.098-.098-.098-.054 0-.098.044-.098.098 0 .035.018.066.046.083l0 .078-.219 0 0-.207c.028-.023.047-.059.047-.098 0-.07-.057-.126-.126-.126-.07 0-.126.057-.126.126 0 .04.018.075.047.098l0 .207h-.26v-.258l-.213 0c-.023.029-.059.047-.098.047-.07 0-.126-.057-.126-.126 0-.07.057-.126.126-.126.039 0 .075.018.098.047l.213 0 0-.219-.084 0c-.017.028-.048.046-.083.046-.054 0-.098-.044-.098-.098 0-.054.044-.098.098-.098.035 0 .065.018.083.046h.084z" />
</svg>