<?xml version="1.0" encoding="utf-8"?>
<svg viewBox="0 0 1 1" width="250" height="250" xmlns="http://www.w3.org/2000/svg">
  <path style="stroke: rgb(0, 0, 0); fill: rgb(49, 254, 1); fill-opacity: 0.6; stroke-width: 0.1px; transform-origin: 0.5px 0.5px; transform: scale(0.7);" d="m0 0 0 .131-.07.063c0 0 0 .081 0 .162l.07.063 0 .081 0 .081-.07.063c0 0 0 .082 0 .162l.07.063 0 .131.131 0 .063-.07c.081 0 .162 0 .162 0l.063.07.081 0 .081 0 .063-.07c.081 0 .162 0 .162 0l.063.07.131 0 0-.13.07-.063c0 0 0-.081 0-.162l-.07-.063 0-.081 0-.081.07-.063c0 0 0-.082 0-.162l-.07-.063 0-.131-.131 0-.063.07c-.081 0-.162 0-.162 0l-.063-.07-.081 0-.081 0-.063.07c-.081 0-.162 0-.162 0l-.063-.07-.131 0z"/>
</svg>