<?xml version="1.0" encoding="utf-8"?>
<svg viewBox="0 0 1 1" width="250" height="250" xmlns="http://www.w3.org/2000/svg">
  <path style="stroke: rgb(0, 0, 0); fill: rgb(49, 254, 1); fill-opacity: 0.6; stroke-width: 0.1px; transform-origin: 0.5px 0.5px; transform: scale(0.7);"  d="m0 0c0 0 .509-.235.396-.071-.053.077-.051.168.001.222.073.074.175.048.221-.01.044-.058.038-.136-.014-.223-.08-.136.395.081.395.081 0 0-.217.475-.081.395.088-.052.165-.058.223-.014.058.045.085.148.01.22-.054.053-.145.054-.222.001-.165-.112.071.396.071.396 0 0-.475.217-.395.081.051-.088.058-.165.013-.223-.045-.059-.147-.085-.22-.01-.052.054-.054.145-.001.222.113.165-.396-.071-.397-.069 0 .001.217-.474.081-.394-.088.052-.165.058-.223.014-.058-.045-.085-.147-.01-.22.054-.052.145-.054.222-.001.165.113-.07-.396-.07-.396z"/>
</svg>