<?xml version="1.0" encoding="utf-8"?>
<svg viewBox="0 0 1 1" width="250" height="250" xmlns="http://www.w3.org/2000/svg">
  <path style="stroke: rgb(0, 0, 0); fill: rgb(49, 254, 1); fill-opacity: 0.6; stroke-width: 0.1px; transform-origin: 0.5px 0.5px; transform: scale(0.7);" 
  d="m0 0 0 .353c0 .025-.018.03-.041.009-.031-.03-.074-.048-.121-.048-.097 0-.175.079-.175.175 0 .097.079.175.175.175.047 0 .089-.018.121-.048.023-.021.041-.016.041.009l0 .376.376 0c.025.001.03-.018.009-.04-.03-.031-.048-.074-.048-.121 0-.097.079-.176.175-.176.097 0 .175.079.175.176 0 .047-.018.089-.048.121-.021.023-.016.041.009.041l.352 0-.001-.375c0-.025.018-.03.04-.009.032.03.074.048.121.048.097 0 .175-.079.175-.175 0-.097-.079-.175-.175-.175-.047 0-.089.018-.121.048-.023.021-.041.016-.04-.009l.001-.354-.374-.001c-.025 0-.03.018-.009.041.03.032.048.074.048.121 0 .097-.079.175-.175.175-.097 0-.175-.079-.175-.175 0-.047.018-.089.048-.121.021-.023.016-.041-.009-.041l-.354 0z" 
  />
</svg>