<?xml version="1.0" encoding="utf-8"?>
<svg viewBox="0 0 1 1" width="250" height="250" xmlns="http://www.w3.org/2000/svg">
  <path style="stroke: rgb(0, 0, 0); fill: rgb(49, 254, 1); fill-opacity: 0.6; stroke-width: 0.1px; transform-origin: 0.5px 0.5px; transform: scale(0.7);"  d="m0 0 .001.379c0 .057-.036.012-.1-.041-.063-.054-.094 0-.091.038l0 .249c-.003.038.028.091.091.038.064-.053.1-.098.1-.041l-.002.378.378 0c.057 0 .012-.036-.041-.1-.054-.064 0-.094.038-.091l.249 0c.038-.003.091.028.038.091-.054.064-.098.1-.041.099l.38-.001-.001-.379c0-.057.036-.013.1.041.063.053.094 0 .091-.038l0-.249c.003-.038-.028-.091-.091-.038-.063.053-.1.098-.099.041l.001-.379-.379 0c-.057 0-.013.036.041.1.053.064 0 .094-.038.091l-.249 0c-.038.003-.091-.028-.038-.091.053-.064.098-.1.041-.099l-.379.001z"/>
</svg>