<?xml version="1.0" encoding="utf-8"?>
<svg viewBox="0 0 1 1" width="250" height="250" xmlns="http://www.w3.org/2000/svg">
  <path style="stroke: rgb(0, 0, 0); fill: rgb(49, 254, 1); fill-opacity: 0.6; stroke-width: 0.1px; transform-origin: 0.5px 0.5px; transform: scale(0.7);" d="m0 0 .246.001c.001-.072.059-.13.131-.13.072 0 .13.058.131.13 0 .072.059.131.131.131.072 0 .13-.059.13-.131l.231 0-.002.246c.072 0 .13.058.13.13 0 .072-.058.13-.13.131-.073 0-.131.059-.131.131 0 .072.058.13.131.13l.001.232-.244-.001c-.001-.072-.059-.129-.131-.129-.072 0-.13.057-.131.129 0 .072-.058.131-.131.131-.072 0-.13-.059-.13-.131l-.233 0-.001-.245c.071-.001.129-.059.129-.131 0-.072-.058-.13-.129-.131-.072 0-.131-.058-.131-.131 0-.072.059-.13.131-.13l.002-.232z"/>
</svg>